<svg xmlns="http://www.w3.org/2000/svg" x="0px" y="0px" width="32" height="32" viewBox="0 0 32 32">
<polygon fill="#085295" points="4,22 4,10 6,10 6,8 8,8 8,6 10,6 10,4 22,4 22,6 24,6 24,8 26,8 26,10 28,10 28,22 26,22 26,24 24,24 24,26 22,26 22,28 10,28 10,26 8,26 8,24 6,24 6,22"></polygon><polygon fill="#e6e5e5" points="23,12 21,12 21,8 19,8 19,10 13,10 13,8 11,8 11,12 9,12 9,18 11,18 11,20 13,20 13,22 10,22 10,24 13,24 13,28 19,28 19,20 21,20 21,18 23,18"></polygon><rect width="2" height="2" x="8" y="20" fill="#e6e5e5"></rect>
</svg>