<svg xmlns="http://www.w3.org/2000/svg" x="0px" y="0px" width="256" height="256" viewBox="0 0 32 32">
<path fill="#b4252c" fill-rule="evenodd" d="M5.997,18.997v-12h2v-2	h2v-2h12v2h2v2h2v12h-2v6h-2v2h-2v2h-8v-2h-2v-2h-2v-6H5.997z" clip-rule="evenodd"></path><path fill="#fcc201" fill-rule="evenodd" d="M7.997,18.997v-4h2v-4	h-2v-4h2v-2h4v6h4v-6h4v2h2v4h-2v4h2v4h-2v4h-2v4h-8v-4h-2v-4H7.997z" clip-rule="evenodd"></path><path fill="#e6e5e5" fill-rule="evenodd" d="M9.996,14.999v1.999	h2.001v-1.999H9.996z" clip-rule="evenodd"></path><path fill="#e6e5e5" fill-rule="evenodd" d="M11.996,16.999v1.999	h2.001v-1.999H11.996z" clip-rule="evenodd"></path><path fill="#e6e5e5" fill-rule="evenodd" d="M17.996,16.997v1.999	h2.001v-1.999H17.996z" clip-rule="evenodd"></path><path fill="#e6e5e5" fill-rule="evenodd" d="M19.996,14.997v1.999	h2.001v-1.999H19.996z" clip-rule="evenodd"></path><path fill="#b4252c" fill-rule="evenodd" d="M13.996,24.999v2.999	h4.001v-2.999H13.996z" clip-rule="evenodd"></path>
</svg>